# xmcd
#
# Track frame offsets:
#	150
#	35162
#	47808
#	63363
#	88955
#	98777
#	120838
#	149189
#	173779
#	188764
#
# Disc length: 2894 seconds
#
# Revision: 6
# Processed by: cddbd v1.5.2PL0 Copyright (c) Steve Scherf et al.
# Submitted via: EZCDAudioConverter 2.1.7.1
#
DISCID=8f0b4c0a
DTITLE=Maceo and All The King's Men - Doing Their Own Thing
DYEAR=1970
DGENRE=
TTITLE0=Maceo
TTITLE1=Got To Get 'Cha
TTITLE2=Southwick
TTITLE3=Funky Women
TTITLE4=Shake It Baby
TTITLE5=Better Half
TTITLE6=Don't Waste This World Away
TTITLE7=I Remember Mr. Banks
TTITLE8=Mag-Poo
TTITLE9=Thank You For Letting Me Be Myself Again
EXTD=
EXTT0=
EXTT1=
EXTT2=
EXTT3=
EXTT4=
EXTT5=
EXTT6=
EXTT7=
EXTT8=
EXTT9=
PLAYORDER=
